<svg width="64" height="37" viewBox="0 0 64 37" fill="none" xmlns="http://www.w3.org/2000/svg" style="width:100%;height:auto;color:#EEEFE9" class="h-full w-auto"><g>
<path fill-rule="evenodd" clip-rule="evenodd" d="M63.7611 27.3815C63.7611 27.2389 63.7675 4.68597 63.7675 4.68597C63.7675 1.72817 61.9794 0.422607 59.4912 0.422607H54.9365V27.3815H58.313V3.55776H59.1579C59.9638 3.55776 60.4114 4.00488 60.4114 4.81151C60.4114 4.81151 60.4114 27.1225 60.4114 27.3815H63.7611Z" fill="currentColor"></path><path fill-rule="evenodd" clip-rule="evenodd" d="M30.4562 27.3815C30.4562 27.3281 30.4605 4.24734 30.4605 4.24734C30.4605 1.63035 28.9469 0 26.0698 0C23.0998 0 21.6797 1.59829 21.6797 4.24734C21.6797 4.24734 21.6797 27.3302 21.6834 27.3815H25.0038C25.0038 27.3708 25.0038 4.34563 25.0038 4.34563C25.0038 3.55289 25.3777 3.13516 26.072 3.13516C26.8304 3.13516 27.1401 3.61593 27.1401 4.34563C27.1401 4.34563 27.1401 27.3692 27.1401 27.3815H30.4562Z" fill="currentColor"></path>
<path fill-rule="evenodd" clip-rule="evenodd" d="M15.0228 14.0882H14.1341V3.65338H15.1825C15.904 3.65338 16.2442 4.08074 16.2442 4.86386V12.8575C16.2442 13.7709 15.6802 14.0882 15.0228 14.0882ZM17.8534 15.7255C18.8372 15.3644 19.5908 14.5765 19.5908 12.5466V4.60584C19.5908 1.91567 18.02 0.422607 15.1045 0.422607H10.7886V27.3815H14.133V17.2544H15.0131C15.9451 17.35 16.2762 17.7245 16.2762 19.006V27.3815H19.6255C19.6223 27.2619 19.6207 18.7149 19.6207 18.7149C19.6207 16.7373 18.7506 16.0979 17.8513 15.7255H17.8534Z" fill="currentColor"></path>
<path d="M4.42219 14.1063H8.73489V27.3814H5.52026C5.52026 27.3708 5.52026 16.9284 5.52026 16.9284H4.42219V14.1063ZM4.42219 0.0955811C7.28486 0.0955811 8.71459 1.72646 8.71459 4.34345V10.9946H5.52079V4.40969C5.52079 3.68106 5.21262 3.23074 4.45263 3.23074C3.74711 3.23074 3.38447 3.64901 3.38447 4.40969C3.38447 4.40969 3.38447 27.3708 3.38447 27.3798H0.00373856C0 27.3302 0 4.34345 0 4.34345C0 1.69441 1.47246 0.0955811 4.42005 0.0955811H4.42219Z" fill="currentColor"></path>
<path fill-rule="evenodd" clip-rule="evenodd" d="M37.9733 0.422607H41.2286V27.0343C41.2286 27.0653 41.2286 27.3522 41.2286 27.3815H37.9733C37.9733 27.3783 37.9733 27.3607 37.9733 27.3575V0.422607ZM32.5161 0.422607H35.8274V27.3815H32.5161C32.5161 27.3522 32.5161 27.0653 32.5161 27.0343V0.422607Z" fill="currentColor"></path>
<path fill-rule="evenodd" clip-rule="evenodd" d="M46.5209 27.3815H43.2817V0.422607H46.444C46.444 0.422607 49.5908 14.3778 49.6352 14.6176C49.6293 14.4835 49.6426 0.422607 49.6426 0.422607H52.8818V27.3815H49.0899C49.0899 27.3815 46.5669 15.6465 46.5183 15.3965C46.5257 15.5273 46.5209 27.3815 46.5209 27.3815Z" fill="currentColor"></path>
</g><path d="M43.2822 35.8354V29.4926H44.4101L47.6585 34.1146V29.4926H48.6871V35.8354H47.6134L44.3199 31.1594V35.8354H43.2822Z" fill="currentColor"></path>
<path d="M51.4131 35.9796C50.9499 35.9796 50.5439 35.8775 50.195 35.6733C49.8461 35.463 49.5754 35.1747 49.3829 34.8083C49.1964 34.4359 49.1032 34.0155 49.1032 33.547C49.1032 33.0844 49.1934 32.67 49.3739 32.3036C49.5604 31.9372 49.8251 31.6489 50.1679 31.4387C50.5168 31.2224 50.9259 31.1143 51.3951 31.1143C51.8463 31.1143 52.2282 31.2164 52.541 31.4206C52.8599 31.6189 53.1005 31.9012 53.2629 32.2676C53.4313 32.628 53.5155 33.0514 53.5155 33.5379C53.5155 33.628 53.5125 33.7091 53.5065 33.7812H50.0867C50.1168 34.2377 50.2491 34.5831 50.4837 34.8173C50.7183 35.0456 51.0342 35.1597 51.4312 35.1597C51.7139 35.1597 51.9455 35.0966 52.126 34.9705C52.3064 34.8444 52.4358 34.6642 52.514 34.4299H53.4704C53.3622 34.9345 53.1215 35.3189 52.7486 35.5832C52.3816 35.8474 51.9365 35.9796 51.4131 35.9796ZM52.532 33.0875C52.508 32.7211 52.3937 32.4418 52.1891 32.2495C51.9906 32.0513 51.7259 31.9522 51.3951 31.9522C51.0462 31.9522 50.7605 32.0513 50.5379 32.2495C50.3153 32.4418 50.1739 32.7211 50.1138 33.0875H52.532Z" fill="currentColor"></path>
<path d="M54.8377 35.8354L53.43 31.2585H54.4226L55.37 34.511L56.3445 31.2585H57.2017L58.1763 34.52L59.1237 31.2585H60.1072L58.6906 35.8354H57.7161L56.7686 32.7L55.8302 35.8354H54.8377Z" fill="currentColor"></path>
<path d="M62.06 35.9796C61.4584 35.9796 60.9802 35.8384 60.6253 35.5561C60.2704 35.2738 60.0719 34.8984 60.0297 34.4299H61.0404C61.0764 34.6642 61.1817 34.8504 61.3562 34.9885C61.5366 35.1267 61.7712 35.1957 62.06 35.1957C62.3427 35.1957 62.5653 35.1357 62.7277 35.0155C62.8961 34.8954 62.9803 34.7422 62.9803 34.556C62.9803 34.4059 62.9202 34.2948 62.7999 34.2227C62.6856 34.1506 62.475 34.0755 62.1683 33.9974C62.1141 33.9914 62.057 33.9824 61.9968 33.9704C61.9427 33.9524 61.8855 33.9374 61.8254 33.9254C61.4524 33.8413 61.1486 33.7482 60.914 33.6461C60.6854 33.5379 60.508 33.3968 60.3817 33.2226C60.2553 33.0484 60.1922 32.8232 60.1922 32.5469C60.1922 32.2586 60.2674 32.0063 60.4177 31.79C60.5681 31.5738 60.7817 31.4086 61.0584 31.2945C61.3351 31.1744 61.6569 31.1143 62.0239 31.1143C62.5593 31.1143 62.9834 31.2404 63.2962 31.4927C63.615 31.745 63.8105 32.1024 63.8827 32.5649H62.8901C62.854 32.3547 62.7638 32.1925 62.6194 32.0784C62.475 31.9582 62.2765 31.8982 62.0239 31.8982C61.7833 31.8982 61.5848 31.9522 61.4283 32.0603C61.278 32.1624 61.2028 32.2976 61.2028 32.4658C61.2028 32.6219 61.2689 32.7361 61.4013 32.8081C61.5396 32.8742 61.7833 32.9463 62.1322 33.0244C62.1562 33.0304 62.1803 33.0364 62.2043 33.0424C62.2284 33.0484 62.2525 33.0544 62.2765 33.0604C62.6796 33.1445 63.0014 33.2376 63.242 33.3397C63.4887 33.4418 63.6751 33.583 63.8015 33.7632C63.9338 33.9434 64 34.1806 64 34.475C64 34.7753 63.9218 35.0396 63.7654 35.2678C63.609 35.4901 63.3834 35.6642 63.0886 35.7904C62.7999 35.9165 62.457 35.9796 62.06 35.9796Z" fill="currentColor"></path></svg>
