<?xml version="1.0" encoding="UTF-8" standalone="no"?>
<svg
   width="24"
   height="24"
   version="1.1"
   id="svg9"
   sodipodi:docname="creality_v3.svg"
   inkscape:version="1.3.2 (091e20e, 2023-11-25)"
   xmlns:inkscape="http://www.inkscape.org/namespaces/inkscape"
   xmlns:sodipodi="http://sodipodi.sourceforge.net/DTD/sodipodi-0.dtd"
   xmlns="http://www.w3.org/2000/svg"
   xmlns:svg="http://www.w3.org/2000/svg">
  <sodipodi:namedview
     id="namedview9"
     pagecolor="#ffffff"
     bordercolor="#000000"
     borderopacity="0.25"
     inkscape:showpageshadow="2"
     inkscape:pageopacity="0.0"
     inkscape:pagecheckerboard="0"
     inkscape:deskcolor="#d1d1d1"
     inkscape:zoom="27.03125"
     inkscape:cx="11.486705"
     inkscape:cy="10.56185"
     inkscape:window-width="1392"
     inkscape:window-height="1014"
     inkscape:window-x="2096"
     inkscape:window-y="25"
     inkscape:window-maximized="0"
     inkscape:current-layer="svg9" />
  <defs
     id="defs6">
    <linearGradient
       id="PSgrad_0"
       x1="0"
       x2="0"
       y1="512.30219"
       y2="17.594217"
       gradientTransform="matrix(0.04649207,0,0,0.04649207,0.5,-0.317992)"
       gradientUnits="userSpaceOnUse">
      <stop
         offset="59%"
         stop-color="rgb(138,176,51)"
         stop-opacity="1"
         id="stop1" />
      <stop
         offset="100%"
         stop-color="rgb(20,87,49)"
         stop-opacity="1"
         id="stop2" />
    </linearGradient>
    <linearGradient
       id="PSgrad_1"
       x1="174.3149"
       x2="174.3149"
       y1="301.00745"
       y2="43.917099"
       gradientTransform="matrix(0.03797133,0,0,0.05692486,0.5,-0.317992)"
       gradientUnits="userSpaceOnUse">
      <stop
         offset="0%"
         stop-color="rgb(19,91,49)"
         stop-opacity="1"
         id="stop3" />
      <stop
         offset="100%"
         stop-color="rgb(50,151,64)"
         stop-opacity="1"
         id="stop4" />
    </linearGradient>
    <linearGradient
       id="PSgrad_2"
       x1="3.4885786"
       x2="3.4885786"
       y1="855.46448"
       y2="566.18097"
       gradientTransform="matrix(0.07763447,0,0,0.02784217,0.5,-0.317992)"
       gradientUnits="userSpaceOnUse">
      <stop
         offset="25%"
         stop-color="rgb(138,176,51)"
         stop-opacity="1"
         id="stop5" />
      <stop
         offset="100%"
         stop-color="rgb(20,87,49)"
         stop-opacity="1"
         id="stop6" />
    </linearGradient>
  </defs>
  <path
     fill-rule="evenodd"
     fill="url(#PSgrad_0)"
     d="M 23.227639,23.134791 C 23.044537,23.36022 22.784484,23.5 22.496131,23.5 c -0.137012,0 -0.26733,-0.03214 -0.386238,-0.08969 l -0.0074,-0.0034 -8.285839,-3.823341 c -0.559053,-0.257571 -1.172821,-0.40096 -1.811206,-0.40096 h -0.0053 -3.6e-4 -0.0053 c -0.638429,0 -1.252197,0.143389 -1.81125,0.40096 l -8.2858394,3.823341 -0.00732,0.0034 C 1.7712441,23.467858 1.6408359,23.5 1.5039141,23.5 0.89171875,23.5 0.5,22.912923 0.5,22.339655 0.5,22.135638 0.5462695,21.942688 0.6260957,21.776059 L 10.363316,1.608042 c 4.5e-5,0 0.0014,-1.45e-4 0.0016,-1.93e-4 C 10.687607,0.947874 11.29823,0.501588 11.99982,0.500048 V 0.5 c 4.5e-5,0 1.35e-4,4.8e-5 1.8e-4,4.8e-5 4.5e-5,0 9e-5,-4.8e-5 1.8e-4,-4.8e-5 v 4.8e-5 c 0.701545,0.0015 1.312123,0.447826 1.634931,1.107801 2.25e-4,4.8e-5 0.0016,1.93e-4 0.0016,1.93e-4 l 9.737265,20.168017 c 0.0798,0.166629 0.126024,0.359579 0.126024,0.563596 0,0.307853 -0.103275,0.587414 -0.272361,0.795136 z M 16.644203,15.871025 12.653434,6.637921 C 12.530752,6.362979 12.285838,6.173109 12,6.173061 c -0.285793,4.8e-5 -0.530707,0.189918 -0.653389,0.46486 l -3.9907692,9.233104 c -0.02857,0.06693 -0.045102,0.142523 -0.045102,0.222253 0,0.276963 0.1940625,0.501525 0.4333164,0.501525 0.076861,0 0.1490957,-0.02314 0.2117168,-0.06385 0,0 2.410463,-1.544946 2.570071,-1.647195 C 10.531244,14.880258 11.16908,14.4393 12,14.4393 c 0.837164,0 1.474201,0.444458 1.489879,0.454515 0.260682,0.167063 2.554348,1.637138 2.554348,1.637138 0.06262,0.04071 0.13481,0.06385 0.211716,0.06385 0.239299,0 0.433317,-0.224562 0.433317,-0.501525 0,-0.07973 -0.01653,-0.155322 -0.04506,-0.222253 z"
     id="path6"
     style="fill:url(#PSgrad_0);stroke-width:0.0464921" />
  <path
     fill-rule="evenodd"
     fill="url(#PSgrad_1)"
     d="m 16.254146,16.816816 c -0.129599,0 -0.249855,-0.04557 -0.349761,-0.123565 l -2.204137,-1.653305 c -0.07556,-0.05817 -0.154307,-0.111151 -0.234402,-0.16153 -0.107408,-0.06756 -0.218725,-0.127895 -0.333366,-0.180583 0.218456,0.0998 0.350391,0.191506 0.357399,0.195981 0.260682,0.167063 2.554348,1.637138 2.554348,1.637138 0.06262,0.04071 0.13481,0.06385 0.211716,0.06385 0.239299,0 0.433317,-0.224562 0.433317,-0.501525 0,-0.07973 -0.01653,-0.155322 -0.04506,-0.222253 L 12.653434,6.637921 C 12.530752,6.362979 12.285838,6.173109 12,6.173061 c -0.285793,4.8e-5 -0.530707,0.189918 -0.653389,0.46486 l -3.9907692,9.233104 c -0.02857,0.06693 -0.045102,0.142523 -0.045102,0.222253 0,0.276963 0.1940625,0.501525 0.4333164,0.501525 0.076861,0 0.1490957,-0.02314 0.2117168,-0.06385 0,0 2.410463,-1.544946 2.570071,-1.647195 0.0024,-0.0016 0.129195,-0.08906 0.341765,-0.185972 -0.11464,0.05274 -0.226002,0.113075 -0.3335,0.180631 -0.08001,0.05038 -0.158799,0.103356 -0.234357,0.16153 l -2.2040922,1.653305 c -0.099906,0.078 -0.2202071,0.123565 -0.3497618,0.123565 -0.3462578,0 -0.6269296,-0.324887 -0.6269296,-0.725655 0,-0.08661 0.013252,-0.169661 0.03733,-0.246697 0.01707,-0.05635 0.035578,-0.113797 0.056871,-0.173462 L 11.422305,2.658054 c 0.08185,-0.269648 0.300123,-0.464282 0.558783,-0.475108 0.0062,-2.41e-4 0.01244,-9.63e-4 0.01873,-9.63e-4 4.5e-5,0 1.35e-4,0 1.8e-4,0 4.5e-5,0 9e-5,0 1.8e-4,0 0.0068,4.8e-5 0.01339,7.22e-4 0.02013,0.0011 0.0098,4.33e-4 0.01972,5.77e-4 0.02938,0.0015 0.0015,1.44e-4 0.0029,4.81e-4 0.0043,6.25e-4 0.243207,0.02613 0.44558,0.215469 0.523744,0.472847 l 4.20909,13.012948 c 0.02129,0.05966 0.0398,0.117117 0.05692,0.173462 0.02408,0.07704 0.03729,0.160086 0.03729,0.246697 0,0.400768 -0.280717,0.725655 -0.626885,0.725655 z M 12.950457,14.621663 C 12.6524,14.50931 12.334443,14.448201 12.003998,14.448201 l -0.004,9.6e-5 -0.004,-9.6e-5 c -0.328873,0 -0.645258,0.06063 -0.942012,0.171922 0.253225,-0.0957 0.58093,-0.180824 0.94601,-0.180824 0.367191,0 0.695795,0.0855 0.950457,0.182364 z m 0.173039,0.07208 c 0.003,0.0013 0.006,0.0027 0.009,0.0041 -0.003,-0.0013 -0.006,-0.0027 -0.009,-0.0041 z m -0.168771,-0.07044 c 0.06073,0.02319 0.117021,0.04701 0.168771,0.07044 -0.05552,-0.02526 -0.111766,-0.04884 -0.168771,-0.07044 z m -0.0043,-0.0016 c 0.0014,5.29e-4 0.0028,0.0011 0.0043,0.0016 -0.0015,-5.29e-4 -0.0028,-0.0011 -0.0043,-0.0016 z m -1.91201,0.0045 c 0.0052,-0.002 0.01033,-0.0041 0.01554,-0.0061 -0.0053,0.002 -0.01033,0.004 -0.01554,0.0061 z m -0.161,0.06717 c 0.04937,-0.02228 0.103141,-0.04494 0.161,-0.06717 -0.05435,0.02074 -0.108037,0.04306 -0.161,0.06717 z m -0.0098,0.0044 c 0.0033,-0.0015 0.0066,-0.0029 0.0098,-0.0044 -0.0032,0.0014 -0.0066,0.0029 -0.0098,0.0044 z"
     id="path7"
     style="fill:url(#PSgrad_1);stroke-width:0.0464921" />
  <path
     fill-rule="evenodd"
     fill="url(#PSgrad_2)"
     d="m 22.497568,23.5 c -0.137011,0 -0.267375,-0.03214 -0.386328,-0.08964 l -0.0073,-0.0033 -8.287008,-3.821032 c -0.559098,-0.257427 -1.172955,-0.400719 -1.81143,-0.400719 h -0.0053 -3.6e-4 -0.0053 c -0.638519,0 -1.252377,0.143292 -1.811519,0.400719 l -8.286963,3.82101 -0.00728,0.0033 C 1.7698516,23.467858 1.6394434,23.5 1.5024766,23.5 1.2139883,23.5 0.95398047,23.360316 0.77083398,23.135031 l 1.66952152,-1.200956 8.5620645,-6.151104 0.0035,-1.93e-4 c 0.28741,-0.212052 0.627828,-0.336531 0.993941,-0.33706 4.5e-5,0 1.35e-4,0 1.8e-4,0 4.5e-5,0 9e-5,0 1.8e-4,0 0.366158,5.29e-4 0.706576,0.125008 0.993896,0.33706 l 0.0035,1.93e-4 8.56211,6.151104 1.669566,1.200956 C 23.046064,23.360316 22.785967,23.5 22.497568,23.5 Z"
     id="path8"
     style="fill:url(#PSgrad_2);stroke-width:0.0464921" />
  <path
     fill-rule="evenodd"
     fill="none"
     d="M 0,0 H 512 V 512 H 0 Z"
     id="path9" />
</svg>
