<?xml version="1.0" encoding="UTF-8" standalone="no"?>
<svg
   role="img"
   width="24"
   height="24"
   viewBox="0 0 24 24"
   fill="currentColor"
   version="1.1"
   id="svg3"
   sodipodi:docname="creality_v2.svg"
   inkscape:version="1.3.2 (091e20e, 2023-11-25)"
   xmlns:inkscape="http://www.inkscape.org/namespaces/inkscape"
   xmlns:sodipodi="http://sodipodi.sourceforge.net/DTD/sodipodi-0.dtd"
   xmlns="http://www.w3.org/2000/svg"
   xmlns:svg="http://www.w3.org/2000/svg">
  <defs
     id="defs3" />
  <sodipodi:namedview
     id="namedview3"
     pagecolor="#ffffff"
     bordercolor="#000000"
     borderopacity="0.25"
     inkscape:showpageshadow="2"
     inkscape:pageopacity="0.0"
     inkscape:pagecheckerboard="0"
     inkscape:deskcolor="#d1d1d1"
     inkscape:zoom="15.446429"
     inkscape:cx="28"
     inkscape:cy="7.283237"
     inkscape:window-width="1392"
     inkscape:window-height="1014"
     inkscape:window-x="2096"
     inkscape:window-y="25"
     inkscape:window-maximized="0"
     inkscape:current-layer="svg3" />
  <g
     id="g1" />
  <path
     class="cls-2"
     d="M 23.423624,21.891225 C 23.403494,21.839387 22.77331,20.525936 22.023523,18.972735 19.902385,14.580744 15.682532,5.8382336 14.234707,2.8368025 13.924787,2.193361 13.644767,1.6173092 13.612568,1.5570473 13.263549,0.89092656 12.646009,0.48982858 11.984196,0.50019622 c -0.0621,6.4798e-4 -0.127648,0.003888 -0.144898,0.005832 -0.59799,0.0784053 -1.078106,0.40822573 -1.398951,0.96159838 -0.0368,0.063502 -0.30762,0.6142825 -0.6014396,1.2240292 -1.3449019,2.7882466 -4.4090246,9.1364802 -7.8848399,16.3361572 -0.7515121,1.556441 -1.37825131,2.869243 -1.39377604,2.916546 -0.0914234,0.287702 -0.0781987,0.612338 0.0350744,0.894857 0.0695738,0.172362 0.21159636,0.365459 0.34269411,0.465247 0.16329723,0.123764 0.32141943,0.182082 0.52381603,0.191154 0.2340209,0.01102 0.068424,0.08035 2.6990036,-1.132665 5.1041876,-2.354102 6.1115704,-2.817405 6.2363434,-2.867948 0.27657,-0.112748 0.649739,-0.213832 0.958508,-0.259838 0.780262,-0.116636 1.590423,-0.0175 2.303986,0.28187 0.069,0.02916 2.01764,0.925311 4.33025,1.991882 2.312611,1.066571 4.238828,1.949116 4.280227,1.961427 0.05865,0.0175 0.111548,0.02268 0.242071,0.02203 0.149497,0 0.176522,-0.0039 0.26277,-0.0337 0.121898,-0.04212 0.260471,-0.123116 0.349594,-0.204761 0.148348,-0.136075 0.28232,-0.366755 0.340394,-0.585123 0.023,-0.08748 0.0299,-0.140612 0.03392,-0.277983 0.0063,-0.201521 -0.01553,-0.347316 -0.07475,-0.49959 z m -6.739459,-5.708681 c -0.03105,0.169122 -0.116148,0.29483 -0.245521,0.364163 -0.09372,0.04989 -0.212746,0.05961 -0.30417,0.02462 -0.03277,-0.01231 -0.630764,-0.389435 -1.329377,-0.837187 -0.698613,-0.4484 -1.320177,-0.844315 -1.381701,-0.879953 -0.311645,-0.182082 -0.643414,-0.306494 -0.976908,-0.366108 -0.150073,-0.02657 -0.581315,-0.03693 -0.749788,-0.01814 -0.26162,0.02916 -0.57614,0.116636 -0.809011,0.2242 -0.218496,0.101085 -0.412843,0.220313 -1.6709209,1.027044 -0.698038,0.447753 -1.2983277,0.827467 -1.3334021,0.843019 -0.087973,0.04017 -0.2184963,0.03499 -0.3104947,-0.01296 C 7.3693248,16.44627 7.2612267,16.16764 7.3336754,15.936312 7.3411454,15.912982 8.1771859,13.974236 9.1914685,11.62791 10.205751,9.2815844 11.107336,7.1957453 11.194159,6.9922804 c 0.179397,-0.4172975 0.224246,-0.5015346 0.32372,-0.604563 0.167322,-0.1723619 0.388693,-0.2468793 0.606614,-0.2028169 0.159272,0.032399 0.28922,0.1133961 0.405368,0.2540071 0.08337,0.1004365 0.09602,0.1270036 0.353044,0.7231429 0.116148,0.2702066 1.016583,2.3534537 2.000391,4.6291505 1.973941,4.565648 1.832493,4.221572 1.802019,4.390046 z"
     id="path1"
     style="stroke-width:0.610394" />
</svg>
