<?xml version="1.0" encoding="UTF-8" standalone="no"?>
<svg
   role="img"
   width="24"
   height="24"
   viewBox="0 0 24 24"
   fill="currentColor"
   version="1.1"
   id="svg1"
   sodipodi:docname="creality_v1.svg"
   inkscape:version="1.3.2 (091e20e, 2023-11-25)"
   xmlns:inkscape="http://www.inkscape.org/namespaces/inkscape"
   xmlns:sodipodi="http://sodipodi.sourceforge.net/DTD/sodipodi-0.dtd"
   xmlns="http://www.w3.org/2000/svg"
   xmlns:svg="http://www.w3.org/2000/svg"
   xmlns:rdf="http://www.w3.org/1999/02/22-rdf-syntax-ns#"
   xmlns:cc="http://creativecommons.org/ns#"
   xmlns:dc="http://purl.org/dc/elements/1.1/">
  <defs
     id="defs1" />
  <sodipodi:namedview
     id="namedview1"
     pagecolor="#ffffff"
     bordercolor="#000000"
     borderopacity="0.25"
     inkscape:showpageshadow="2"
     inkscape:pageopacity="0.0"
     inkscape:pagecheckerboard="0"
     inkscape:deskcolor="#d1d1d1"
     inkscape:zoom="30.892857"
     inkscape:cx="11.539884"
     inkscape:cy="12.381503"
     inkscape:window-width="1392"
     inkscape:window-height="1014"
     inkscape:window-x="2096"
     inkscape:window-y="25"
     inkscape:window-maximized="0"
     inkscape:current-layer="svg1" />
  <title
     id="title1">Creality</title>
  <path
     d="M 0.8782732,22.702731 C 1.0863235,22.264233 1.5748932,21.25315 1.9639836,20.455882 2.353074,19.658613 3.689294,16.962394 4.933361,14.464285 6.177427,11.966176 7.999369,8.334978 8.982121,6.394958 9.964872,4.454937 11.044551,2.334926 11.381405,1.683824 11.718261,1.03272 12.020511,0.5 12.053072,0.5 c 0.03256,0 0.634577,1.1198 1.337813,2.488445 0.703236,1.368645 2.007861,3.945274 2.899167,5.725841 0.891306,1.780567 2.338828,4.685832 3.216717,6.456144 0.877888,1.770311 2.135502,4.333533 2.794695,5.696047 C 22.96066,22.228992 23.5,23.378926 23.5,23.421887 v 0.07811 H 15.981906 8.463811 l 0.0021,-0.07248 c 0.0011,-0.03986 0.463619,-1.007458 1.027655,-2.150209 l 1.025521,-2.077732 3.243746,-0.02527 3.243747,-0.02527 -0.308301,-0.652469 C 16.52872,18.137711 15.48114,15.993665 14.370329,13.732024 13.259518,11.470382 12.284695,9.518195 12.204055,9.393831 l -0.146617,-0.226117 -0.787994,1.536944 c -0.433395,0.845318 -1.816429,3.602594 -3.073405,6.127279 -1.256977,2.524685 -2.52267,5.057825 -2.812651,5.629202 L 4.856148,23.5 H 2.678087 0.5 Z"
     id="path1"
     style="stroke-width:0.622716" />
  <metadata
     id="metadata1">
    <rdf:RDF>
      <cc:Work
         rdf:about="">
        <dc:title>Creality</dc:title>
      </cc:Work>
    </rdf:RDF>
  </metadata>
</svg>
