<?xml version="1.0" encoding="UTF-8" standalone="no"?>
<svg
   role="img"
   width="24"
   height="24"
   viewBox="0 0 24 24"
   fill="currentColor"
   version="1.1"
   id="svg1"
   sodipodi:docname="synology_syno.svg"
   inkscape:version="1.3.2 (091e20e, 2023-11-25)"
   xmlns:inkscape="http://www.inkscape.org/namespaces/inkscape"
   xmlns:sodipodi="http://sodipodi.sourceforge.net/DTD/sodipodi-0.dtd"
   xmlns="http://www.w3.org/2000/svg"
   xmlns:svg="http://www.w3.org/2000/svg"
   xmlns:rdf="http://www.w3.org/1999/02/22-rdf-syntax-ns#"
   xmlns:cc="http://creativecommons.org/ns#"
   xmlns:dc="http://purl.org/dc/elements/1.1/">
  <defs
     id="defs1" />
  <sodipodi:namedview
     id="namedview1"
     pagecolor="#ffffff"
     bordercolor="#000000"
     borderopacity="0.25"
     inkscape:showpageshadow="2"
     inkscape:pageopacity="0.0"
     inkscape:pagecheckerboard="0"
     inkscape:deskcolor="#d1d1d1"
     inkscape:zoom="27.03125"
     inkscape:cx="16"
     inkscape:cy="16"
     inkscape:window-width="1392"
     inkscape:window-height="1014"
     inkscape:window-x="2300"
     inkscape:window-y="110"
     inkscape:window-maximized="0"
     inkscape:current-layer="svg1" />
  <title
     id="title1">Synology</title>
  <path
     d="m 17.651511,11.871324 c 0,-0.54339 0.130082,-1.076105 0.377305,-1.552418 l -0.0082,0.016 C 18.252867,9.8585964 18.612211,9.46916 19.049897,9.2077566 l 0.01504,-0.0038 C 19.510517,8.9456023 20.015756,8.81071 20.525301,8.8145203 h 0.04389 c 0.857394,0 1.56099,0.2934105 2.107913,0.8848032 0.546202,0.5875835 0.819306,1.3344415 0.822896,2.2383045 0,0.909193 -0.276694,1.659105 -0.830804,2.262684 -0.55411,0.599773 -1.250521,0.89701 -2.092821,0.89701 -0.542615,0 -1.051446,-0.13948 -1.504216,-0.384878 l 0.01795,0.0115 c -0.452081,-0.237788 -0.827237,-0.615026 -1.070148,-1.087531 l -0.0038,-0.01226 c -0.243597,-0.479366 -0.365776,-1.0639 -0.365776,-1.7536 z m 1.526495,0.08765 c 0,0.599771 0.131518,1.060078 0.40031,1.368745 0.523922,0.639397 1.460373,0.643207 1.98071,0 h 0.0038 c 0.261603,-0.313239 0.393126,-0.777361 0.393126,-1.377127 0,-0.60358 -0.131523,-1.051703 -0.393126,-1.365692 -0.523924,-0.6348344 -1.456781,-0.6394066 -1.980706,0 h -0.0037 c -0.265196,0.313975 -0.400315,0.770483 -0.400315,1.369487 z m -1.534402,2.9844 h -1.494153 v -3.059848 c 0,-0.647039 -0.02945,-1.063912 -0.09414,-1.255194 -0.05964,-0.179096 -0.16746,-0.333042 -0.314073,-0.444309 h -0.0037 c -0.149381,-0.10365 -0.321867,-0.159285 -0.497227,-0.159285 h -0.03741 c -0.258735,0 -0.502369,0.08306 -0.696412,0.230919 h 0.0038 c -0.201991,0.139459 -0.351477,0.341418 -0.426218,0.583008 v 0.0083 c -0.08267,0.249977 -0.115753,0.706475 -0.115753,1.380934 v 2.715399 H 12.481984 V 8.9257792 h 1.377712 v 0.8817563 c 0.497319,-0.6676037 1.11827,-0.9968353 1.871453,-0.9968353 h 0.01795 c 0.321969,0 0.628854,0.067056 0.909142,0.1912892 l -0.01441,-0.00382 c 0.247225,0.1066948 0.456357,0.2690228 0.617346,0.4793639 l 0.0038,0.0038 c 0.13511,0.1912887 0.235727,0.4122992 0.292504,0.6554107 v 0.01143 c 0.05539,0.282742 0.08626,0.607397 0.08626,0.936629 v 0.1311 z M 6.6498209,8.9257792 H 8.2330896 L 9.5878164,13.196612 10.905174,8.9257792 h 1.543027 l -1.980711,5.7881788 -0.362213,1.051703 c -0.101332,0.289618 -0.2292658,0.563213 -0.3859346,0.820803 l 0.011499,-0.01524 C 9.622314,16.745723 9.4872098,16.896632 9.3262164,17.01933 l -0.00371,0.005 c -0.1646272,0.114793 -0.3514891,0.206242 -0.5541573,0.26188 l -0.015065,0.005 C 8.5325779,17.352376 8.2738498,17.392 8.0122496,17.392 H 7.9892526 C 7.6940757,17.387 7.4022875,17.3523 7.1176867,17.285313 l 0.026588,0.005 -0.1236149,-1.250612 c 0.1868591,0.04804 0.4082154,0.0762 0.6324466,0.07919 0.3442539,0 0.6029787,-0.106695 0.7675622,-0.320846 0.1753579,-0.24616 0.3025644,-0.524329 0.3773094,-0.822313 l 0.00375,-0.01524 z M 0.50359348,12.240166 2.0308071,12.090047 c 0.092712,0.543379 0.2810076,0.944227 0.5612966,1.198011 0.2766948,0.258358 0.6583185,0.384872 1.1412771,0.381062 0.5052387,0 0.8875809,-0.110505 1.1448718,-0.337603 0.2587277,-0.225583 0.3859357,-0.496131 0.3859357,-0.797947 v -0.02352 c 0,-0.174527 -0.056775,-0.345236 -0.1609864,-0.480888 C 4.9946802,11.894184 4.8071018,11.775278 4.5375942,11.675456 4.3543283,11.600016 3.9310204,11.485685 3.2791698,11.306586 2.4339917,11.087874 1.8453856,10.815033 1.5090389,10.488855 1.051953,10.076557 0.79035036,9.468398 0.79035036,8.8343256 v -0.032766 c 0,-0.4359252 0.12720787,-0.8413636 0.33993974,-1.1789772 l -0.00359,0.00832 C 1.362427,7.253721 1.6958987,6.9603123 2.0890208,6.7896008 l 0.015094,-0.00382 C 2.5267026,6.5990736 3.0362526,6.5 3.6385141,6.5 c 0.977417,0 1.7111984,0.2293926 2.2085313,0.6858952 0.4944579,0.4641203 0.7524668,1.0722802 0.7754649,1.8381956 L 5.0421135,9.0797194 C 4.9709636,8.6590418 4.832975,8.353439 4.6080258,8.1659598 4.387388,7.980008 4.0539163,7.8847444 3.619828,7.8847444 c -0.4570858,0 -0.8164305,0.099836 -1.0701278,0.3056028 -0.1573927,0.110507 -0.2508219,0.2979828 -0.2508219,0.49613 v 0.012192 c 0,0.2065293 0.089835,0.3848631 0.2321369,0.49994 v 0.00382 C 2.72578,9.3815152 3.2087383,9.5674683 3.9762979,9.7541844 4.7402637,9.9439478 5.3051535,10.146668 5.672404,10.35396 c 0.3557508,0.201958 0.6468194,0.48775 0.8530832,0.841367 l 0.00795,0.0082 c 0.2062638,0.348281 0.310473,0.797921 0.310473,1.325299 0,0.49613 -0.1379878,0.961012 -0.377311,1.34512 l 0.00351,-0.0056 C 6.219325,14.28448 5.8599798,14.601524 5.4330788,14.792041 l -0.015087,0.005 C 4.960903,14.994727 4.395295,15.098375 3.7182901,15.098375 2.7344052,15.098375 1.974032,14.855264 1.4465149,14.367516 0.91540217,13.87337 0.60420991,13.167656 0.5,12.238642 Z"
     id="path1"
     style="stroke-width:0.740075" />
  <metadata
     id="metadata1">
    <rdf:RDF>
      <cc:Work
         rdf:about="">
        <dc:title>Synology</dc:title>
      </cc:Work>
    </rdf:RDF>
  </metadata>
</svg>
