<?xml version="1.0" encoding="UTF-8" standalone="no"?>
<svg
   role="img"
   width="24"
   height="24"
   viewBox="0 0 24 24"
   fill="currentColor"
   version="1.1"
   id="svg1"
   sodipodi:docname="synology_v2.svg"
   inkscape:version="1.3.2 (091e20e, 2023-11-25)"
   xmlns:inkscape="http://www.inkscape.org/namespaces/inkscape"
   xmlns:sodipodi="http://sodipodi.sourceforge.net/DTD/sodipodi-0.dtd"
   xmlns="http://www.w3.org/2000/svg"
   xmlns:svg="http://www.w3.org/2000/svg"
   xmlns:rdf="http://www.w3.org/1999/02/22-rdf-syntax-ns#"
   xmlns:cc="http://creativecommons.org/ns#"
   xmlns:dc="http://purl.org/dc/elements/1.1/">
  <defs
     id="defs1" />
  <sodipodi:namedview
     id="namedview1"
     pagecolor="#ffffff"
     bordercolor="#000000"
     borderopacity="0.25"
     inkscape:showpageshadow="2"
     inkscape:pageopacity="0.0"
     inkscape:pagecheckerboard="true"
     inkscape:deskcolor="#d1d1d1"
     inkscape:zoom="24.465895"
     inkscape:cx="7.9498422"
     inkscape:cy="13.181615"
     inkscape:window-width="1392"
     inkscape:window-height="1014"
     inkscape:window-x="2096"
     inkscape:window-y="25"
     inkscape:window-maximized="0"
     inkscape:current-layer="svg1" />
  <title
     id="title1">Synology</title>
  <path
     d="M 13.768919,0.50227273 12.891881,1.8875 12.947051,2.325 a 0.61497647,2.3306818 0 0 1 0.209889,-0.2022727 0.18500267,0.70113636 0 0 1 0.124435,0.1715909 c 0.03268,0.1045454 0.05727,0.3034091 0.07106,0.5988636 0.01379,0.2954546 0.02159,1.0852273 0.02159,2.3715909 V 15.501136 c 0,0.706819 -0.01289,1.181819 -0.04138,1.425 a 0.29114683,1.1034091 0 0 1 -0.116639,0.531819 c -0.05247,0.113636 -0.145123,0.168181 -0.282451,0.168181 v 0.454546 h 1.462031 v -0.454546 c -0.15202,0 -0.257565,-0.06364 -0.316034,-0.179545 a 0.28634936,1.0852273 0 0 1 -0.124435,-0.531818 c -0.02579,-0.227273 -0.03958,-0.7 -0.03958,-1.414773 V 0.5 Z M 2.1971072,1.7738636 c -0.3259286,0 -0.5996845,0.1875 -0.8293637,0.55 A 1.1474963,4.3488636 0 0 0 0.8406208,3.9556818 1.0692375,4.0522727 0 0 0 0.65801687,6.2454545 c 0,1.2647728 0.12923201,2.3454546 0.38799583,3.2329546 0.1817045,0.6249999 0.5004368,1.1556819 0.9555973,1.5784089 0.353514,0.340909 0.5795951,0.568182 0.6791427,0.714773 a 0.68963719,2.6136364 0 0 1 0.306139,0.681818 0.38979493,1.4772727 0 0 1 0.086954,0.969318 c 0,0.579546 -0.068964,1.088637 -0.207191,1.534091 -0.1382272,0.445455 -0.3454182,0.657955 -0.6200738,0.657955 q -0.3879958,0 -0.6170753,-0.7375 C 1.4771859,14.3875 1.3776383,13.6125 1.3254657,12.569318 L 0.5,12.864773 q 0.0830563,2.694318 0.5097318,4.101136 0.4266756,1.406818 1.2293533,1.414773 c 0.3664072,0 0.6713468,-0.202273 0.918117,-0.584091 A 1.2467441,4.725 0 0 0 3.9280965,13.422727 1.2734301,4.8261364 0 0 0 3.7592853,10.863636 1.1876752,4.5011364 0 0 0 3.2933305,9.2284091 C 3.0957344,8.8284091 2.7916944,8.4431818 2.3782119,8.0681818 1.9647294,7.6931818 1.7038667,7.3465909 1.598622,6.9977273 A 0.32173074,1.2193182 0 0 1 1.607622,5.0375 C 1.7458493,4.6443182 1.9392475,4.4534091 2.1860177,4.4534091 c 0.2368754,0 0.4164809,0.1829545 0.5352184,0.5420454 0.1187376,0.359091 0.1963967,0.9579546 0.233877,1.7625 L 3.8081596,6.6534091 C 3.7952664,5.1761364 3.6561396,3.9965909 3.3883805,3.1022727 3.1206213,2.2079545 2.7233303,1.7738636 2.1950083,1.7738636 Z M 8.726772,6.2375 c -0.404787,0 -0.7424094,0.6363636 -1.0098687,1.9227273 V 6.4556818 H 6.972395 V 18.076136 h 0.8035772 v -5.242045 c 0,-1.302273 0.021589,-2.181818 0.062067,-2.668182 a 0.57569713,2.1818182 0 0 1 0.2308785,-1.1454545 0.65755407,2.4920455 0 0 1 0.3802,-0.4420454 0.49563925,1.8784091 0 0 1 0.2833509,0.3068182 0.43657033,1.6545455 0 0 1 0.1679117,0.8568182 c 0.036581,0.3704545 0.053372,1.1749995 0.053372,2.4170455 V 18.075 H 9.7594287 V 10.877273 A 2.5075808,9.5034091 0 0 0 9.7138527,8.8193182 0.91331951,3.4613636 0 0 0 9.5558358,7.5363636 0.81946889,3.1056818 0 0 0 9.219113,6.6011364 1.2686326,4.8079545 0 0 0 8.726772,6.2386364 Z m 2.616124,0 A 1.6791166,6.3636364 0 0 0 10.527325,6.9863636 1.372378,5.2011364 0 0 0 9.9636213,9.1784091 1.6626253,6.3011364 0 0 0 9.7642262,12.145455 c 0,1.331818 0.067165,2.457954 0.1993951,3.381818 a 1.29262,4.8988636 0 0 0 0.5804947,2.118182 1.7795638,6.7443182 0 0 0 0.803577,0.726136 c 0.454261,0 0.830263,-0.584091 1.129506,-1.731818 0.299243,-1.147728 0.449763,-2.613637 0.449763,-4.365909 0,-1.752273 -0.148122,-3.1818185 -0.445265,-4.3250004 C 12.184553,6.8056818 11.807351,6.2443182 11.342296,6.2443182 Z m 7.2217,0.1875 c -0.346617,0 -0.631767,0.4045455 -0.85395,1.2079545 a 1.0341559,3.9193182 0 0 0 -0.186502,4.8784095 1.0194637,3.8636364 0 0 0 0.41738,1.421591 c -0.220084,0.7 -0.36131,1.25 -0.423677,1.64659 a 0.54301433,2.0579545 0 0 0 -0.08995,1.013637 0.26985803,1.0227273 0 0 0 0.07016,0.688636 c 0.04528,0.209091 0.125334,0.434091 0.236875,0.7 q -0.166712,0.648864 -0.324729,1.328409 c -0.111542,0.542046 -0.187701,0.946591 -0.223083,1.256818 a 0.40478705,1.5340909 0 0 0 -0.03358,0.5875 c 0,0.454546 0.08006,0.868182 0.242872,1.282955 0.287249,0.711364 0.640763,1.0625 1.057244,1.0625 q 0.814371,0 1.319306,-1.785227 c 0.229079,-0.807955 0.345418,-1.684091 0.345418,-2.596591 a 0.60508167,2.2931818 0 0 0 -0.179905,-1.684091 0.82726479,3.1352273 0 0 0 -0.483646,-0.848864 8.3697968,31.720455 0 0 0 -0.866844,-0.198863 4.2028889,15.928409 0 0 1 -0.454261,-0.101137 c -0.103745,-0.05568 -0.174808,-0.15 -0.209889,-0.280682 a 0.15172018,0.575 0 0 1 -0.05517,-0.419318 0.36520787,1.3840909 0 0 1 0.04947,-0.595454 0.85694917,3.2477273 0 0 1 0.183503,-0.829546 1.4992113,5.6818182 0 0 0 0.453062,0.261364 q 0.533119,0 0.853051,-1.126136 a 0.94390342,3.5772727 0 0 0 0.318732,-2.701137 q 0,-1.3863635 -0.184703,-2.281818 h 0.389795 c 0.09565,0 0.148122,-0.00795 0.164914,-0.0375 A 0.05517098,0.20909091 0 0 0 20.130969,8.181818 0.28544983,1.0818182 0 0 0 20.148659,7.7272725 0.20988958,0.79545455 0 0 0 20.128869,7.3340909 0.08185694,0.31022727 0 0 0 20.096189,7.2295455 0.81946889,3.1056818 0 0 0 19.932175,7.2 H 19.302506 A 1.2893217,4.8863636 0 0 0 18.566094,6.4147727 Z m -2.71687,0 a 1.3909682,5.2715909 0 0 0 -0.704929,0.7261364 1.4185537,5.3761364 0 0 0 -0.539716,2.2818181 1.7927569,6.7943182 0 0 0 -0.202394,3.0863635 1.6701214,6.3295455 0 0 0 0.335524,3.853409 1.2734301,4.8261364 0 0 0 1.076133,2.031818 1.3945663,5.2852273 0 0 0 0.749606,-0.789772 c 0.226981,-0.523864 0.403888,-1.309091 0.53312,-2.345455 A 1.8890062,7.1590909 0 0 0 17.286669,12.201136 1.5753712,5.9704545 0 0 0 16.937053,8.3772727 1.326802,5.0284091 0 0 0 15.846227,6.4238636 Z M 3.8210528,6.4590909 4.9799432,18.106818 a 1.1777804,4.4636364 0 0 1 -0.2062915,1.6125 c -0.089953,0.419318 -0.2269806,0.625 -0.4137823,0.625 a 1.6401371,6.2159091 0 0 1 -0.3397213,-0.15 l 0.066265,2.413637 a 2.1570652,8.175 0 0 0 0.4572595,0.188636 1.5996584,6.0625 0 0 0 0.4125829,-0.194318 1.0266599,3.8909091 0 0 0 0.306139,-0.515909 0.85095233,3.225 0 0 0 0.2212836,-0.875 A 2.1720573,8.2318182 0 0 0 5.6860716,19.6625 L 5.883068,17.627273 6.9541046,6.4590909 H 6.1202433 L 5.4075182,14.705682 4.6771025,6.4590909 Z M 20.239815,6.7511364 v 0.4545454 a 0.82936368,3.1431818 0 0 1 0.241973,0.3409091 0.88603387,3.3579545 0 0 1 0.134329,0.5875 1.8530251,7.0227273 0 0 1 0.155918,0.9545455 l 1.074035,8.5124996 -0.209889,1.968182 c -0.07796,0.726137 -0.155918,1.219318 -0.232978,1.470455 -0.07706,0.251136 -0.148122,0.388636 -0.214087,0.388636 a 0.86684396,3.2852273 0 0 1 -0.164914,-0.1875 0.91212015,3.4568182 0 0 0 -0.296244,-0.261364 c -0.103745,0 -0.187701,0.09318 -0.24677,0.314773 a 0.28245141,1.0704545 0 0 0 -0.08995,0.822727 0.32982648,1.25 0 0 0 0.124435,0.961364 0.44976339,1.7045455 0 0 0 0.317833,0.419318 c 0.177806,0 0.36131,-0.269318 0.552909,-0.834091 0.191599,-0.564772 0.345418,-1.384091 0.462956,-2.484091 L 23.059832,8.9022727 a 1.579569,5.9863636 0 0 1 0.111541,-0.95 A 0.54301433,2.0579545 0 0 1 23.314398,7.4056818 0.46685439,1.7693182 0 0 1 23.5,7.2068182 V 6.7522727 h -0.966691 v 0.4545455 a 0.58439256,2.2147727 0 0 1 0.194597,0.086364 0.16971072,0.64318182 0 0 1 0.08186,0.2136364 0.14422413,0.54659091 0 0 1 0.02279,0.325 0.70193072,2.6602273 0 0 1 -0.05517,1.0136363 L 22.111137,15.095455 21.38342,9.3704545 C 21.31026,8.8090909 21.274877,8.3681818 21.274877,8.0386364 a 0.207191,0.78522727 0 0 1 0.07316,-0.5988637 0.34152033,1.2943182 0 0 1 0.221284,-0.2352272 h 0.06716 V 6.75 Z M 18.509126,7.05 c 0.172709,0 0.311836,0.2772727 0.424576,0.8113636 0.148122,0.7329546 0.221284,1.7431819 0.221284,3.0488634 q 0,1.4875 -0.158017,2.185228 a 0.50973184,1.9318182 0 0 1 -0.404787,0.703409 0.52112584,1.975 0 0 1 -0.424577,-0.807955 c -0.147222,-0.711364 -0.220084,-1.713636 -0.220084,-3.0011363 0,-1.0022727 0.05337,-1.725 0.161015,-2.2079545 a 0.50973184,1.9318182 0 0 1 0.400889,-0.7375 z m -2.761248,0.2022727 c 0.239874,0 0.434472,0.3818182 0.59039,1.1670455 0.22698,1.1522727 0.34152,2.7204548 0.34152,4.7249998 0,1.605682 -0.06896,2.727273 -0.206291,3.386364 a 0.63776448,2.4170455 0 0 1 -0.521126,0.9875 c -0.282452,0 -0.509732,-0.602273 -0.682141,-1.785227 -0.17241,-1.182955 -0.259664,-2.6 -0.259664,-4.246591 0,-1.022728 0.03658,-1.8443185 0.108543,-2.5000004 a 0.72172031,2.7352273 0 0 1 0.281252,-1.3511363 0.65965297,2.5 0 0 1 0.347517,-0.3829546 z m -4.407681,1.4772728 a 0.69443467,2.6318182 0 0 1 0.536118,0.9238636 c 0.142125,0.6056819 0.213188,1.4852269 0.213188,2.6306819 0,1.163636 -0.07106,2.057954 -0.213188,2.663636 a 0.70822741,2.6840909 0 0 1 -1.071036,0 c -0.145124,-0.602272 -0.217086,-1.488636 -0.217086,-2.648863 0,-1.160228 0.07196,-2.038637 0.217086,-2.6454549 a 0.69503435,2.6340909 0 0 1 0.534918,-0.9238636 z m 6.574941,9.3465905 c 0.261762,0.135228 0.638664,0.243182 1.127407,0.298864 0.335523,0.02614 0.558906,0.127273 0.671347,0.310227 0.112441,0.182955 0.167911,0.486364 0.167911,0.902273 q 0,0.880682 -0.278253,1.653409 c -0.187701,0.515909 -0.473751,0.778409 -0.862946,0.778409 -0.408685,0 -0.72262,-0.261363 -0.938806,-0.763636 -0.126234,-0.292046 -0.187702,-0.628409 -0.187702,-1.036364 a 0.52772237,2 0 0 1 0.07496,-0.972727 1.4908157,5.65 0 0 1 0.225182,-1.171591 z"
     fill="#ffffff"
     id="path1"
     style="stroke-width:0.0583722" />
  <metadata
     id="metadata1">
    <rdf:RDF>
      <cc:Work
         rdf:about="">
        <dc:title>Synology</dc:title>
      </cc:Work>
    </rdf:RDF>
  </metadata>
</svg>
