<?xml version="1.0" encoding="UTF-8" standalone="no"?>
<svg
   width="24"
   height="24"
   fill="currentColor"
   version="1.1"
   id="svg1"
   sodipodi:docname="synology_s2.svg"
   viewBox="0 0 24 24"
   inkscape:version="1.3.2 (091e20e, 2023-11-25)"
   xmlns:inkscape="http://www.inkscape.org/namespaces/inkscape"
   xmlns:sodipodi="http://sodipodi.sourceforge.net/DTD/sodipodi-0.dtd"
   xmlns="http://www.w3.org/2000/svg"
   xmlns:svg="http://www.w3.org/2000/svg"
   xmlns:rdf="http://www.w3.org/1999/02/22-rdf-syntax-ns#"
   xmlns:cc="http://creativecommons.org/ns#"
   xmlns:dc="http://purl.org/dc/elements/1.1/">
  <defs
     id="defs1" />
  <sodipodi:namedview
     id="namedview1"
     pagecolor="#ffffff"
     bordercolor="#000000"
     borderopacity="0.25"
     inkscape:showpageshadow="2"
     inkscape:pageopacity="0.0"
     inkscape:pagecheckerboard="0"
     inkscape:deskcolor="#d1d1d1"
     inkscape:zoom="23.901812"
     inkscape:cx="15.24989"
     inkscape:cy="13.32535"
     inkscape:window-width="1392"
     inkscape:window-height="1014"
     inkscape:window-x="2192"
     inkscape:window-y="31"
     inkscape:window-maximized="0"
     inkscape:current-layer="svg1" />
  <title
     id="title1">Synology</title>
  <path
     d="m 3.2,15.855803 4.3291706,-0.404455 q 0.4001001,2.179563 1.5936566,3.208675 1.1935568,1.029113 3.2412578,1.017879 c 1.436315,0 2.519732,-0.307836 3.254745,-0.910024 0.735016,-0.602188 1.087913,-1.321219 1.087913,-2.125635 a 2.0566933,2.0559789 0 0 0 -0.44955,-1.348183 c -0.307942,-0.359515 -0.84066,-0.685326 -1.602647,-0.943728 -0.525974,-0.19998 -1.715035,-0.51905 -3.567183,-0.990914 C 8.6890108,12.772958 7.0211785,12.038199 6.0568935,11.173114 A 5.8441559,5.8421258 0 0 1 4.0204299,6.6926534 5.6193806,5.6174287 0 0 1 4.9802196,3.5244236 6.0172327,6.0151426 0 0 1 7.7472031,1.2639703 C 8.9475025,0.76289566 10.392807,0.5 12.103347,0.5 q 4.156094,0 6.264485,1.8357757 c 1.402598,1.2425752 2.135364,2.8716295 2.205045,4.9163736 L 16.090859,7.4026964 C 15.893057,6.2792106 15.495204,5.46356 14.861339,4.9602384 14.227472,4.4569168 13.287912,4.2097499 12.0494,4.2097499 c -1.294705,0 -2.310689,0.2651426 -3.0389601,0.8089097 A 1.6048951,1.6043376 0 0 0 8.3001497,6.3803243 1.6903097,1.6897225 0 0 0 8.9632369,7.7285072 c 0.5574427,0.4853459 1.9285721,0.9774326 4.0976521,1.4830012 2.169081,0.5055686 3.773977,1.0515826 4.81019,1.6043376 a 6.2172827,6.2151231 0 0 1 2.443307,2.269441 C 20.896554,14.022274 21.2,15.222157 21.2,16.631008 A 6.5611889,6.5589097 0 0 1 20.139061,20.20594 6.4015984,6.3993748 0 0 1 17.14955,22.688843 C 15.85934,23.216882 14.254445,23.5 12.332618,23.5 9.5341656,23.5 7.3875623,22.846131 5.8815688,21.538394 4.3755745,20.230657 3.4922081,18.338707 3.2,15.855803 Z"
     id="path1"
     style="stroke-width:0.224736" />
  <metadata
     id="metadata1">
    <rdf:RDF>
      <cc:Work
         rdf:about="">
        <dc:title>Synology</dc:title>
      </cc:Work>
    </rdf:RDF>
  </metadata>
</svg>
