<?xml version="1.0" encoding="UTF-8" standalone="no"?>
<svg
   role="img"
   width="24"
   height="24"
   viewBox="0 0 24 24"
   fill="currentColor"
   version="1.1"
   id="svg4"
   sodipodi:docname="synology_v1.svg"
   inkscape:version="1.3.2 (091e20e, 2023-11-25)"
   xmlns:inkscape="http://www.inkscape.org/namespaces/inkscape"
   xmlns:sodipodi="http://sodipodi.sourceforge.net/DTD/sodipodi-0.dtd"
   xmlns="http://www.w3.org/2000/svg"
   xmlns:svg="http://www.w3.org/2000/svg">
  <sodipodi:namedview
     id="namedview4"
     pagecolor="#ffffff"
     bordercolor="#000000"
     borderopacity="0.25"
     inkscape:showpageshadow="2"
     inkscape:pageopacity="0.0"
     inkscape:pagecheckerboard="0"
     inkscape:deskcolor="#d1d1d1"
     inkscape:zoom="25.485307"
     inkscape:cx="11.634155"
     inkscape:cy="11.987299"
     inkscape:window-width="1392"
     inkscape:window-height="1014"
     inkscape:window-x="1880"
     inkscape:window-y="46"
     inkscape:window-maximized="0"
     inkscape:current-layer="svg4" />
  <defs
     id="defs1">
    <clipPath
       id="synology-black_svg__a">
      <path
         d="M 0,183.89 H 595.276 V 0 H 0 Z"
         id="path1" />
    </clipPath>
  </defs>
  <g
     fill="#231916"
     clip-path="url(#synology-black_svg__a)"
     transform="matrix(0.04337486,0,0,-0.0867492,-0.60098259,19.99518)"
     id="g4">
    <path
       d="m 20.772,86.747 19.256,1.804 c 1.188,-6.467 3.545,-11.229 7.088,-14.279 3.563,-3.023 8.371,-4.533 14.417,-4.533 6.386,0 11.21,1.37 14.484,4.051 3.241,2.746 4.843,5.881 4.843,9.464 0,2.324 -0.687,4.355 -2.033,5.983 -1.368,1.599 -3.743,3.054 -7.129,4.204 -2.337,0.889 -7.627,2.311 -15.871,4.408 -10.636,2.617 -18.104,5.893 -22.35,9.741 -6.03,5.468 -9.052,12.131 -9.052,19.936 0,5.024 1.387,9.774 4.267,14.105 2.823,4.396 6.945,7.743 12.308,10.061 5.345,2.236 11.75,3.402 19.381,3.402 12.326,0 21.613,-2.73 27.874,-8.154 6.243,-5.525 9.501,-12.778 9.807,-21.878 l -19.94,-0.667 c -0.88,4.967 -2.645,8.626 -5.468,10.874 -2.772,2.228 -6.964,3.341 -12.508,3.341 -5.757,0 -10.277,-1.182 -13.515,-3.596 -2.122,-1.551 -3.166,-3.544 -3.166,-6.085 0,-2.375 0.972,-4.329 2.95,-5.996 2.483,-2.158 8.583,-4.35 18.23,-6.603 9.663,-2.298 16.79,-4.676 21.396,-7.14 4.625,-2.464 8.26,-5.817 10.871,-10.097 2.591,-4.175 3.94,-9.512 3.94,-15.777 0,-5.651 -1.584,-10.999 -4.716,-15.913 -3.131,-4.917 -7.576,-8.639 -13.298,-11.052 -5.742,-2.35 -12.883,-3.607 -21.432,-3.607 -12.453,0 -22.044,2.908 -28.703,8.727 -6.659,5.791 -10.636,14.226 -11.931,25.276"
       id="path2" />
    <path
       d="m 98.331,126.2 h 19.994 l 17.078,-50.845 16.644,50.845 h 19.489 L 146.488,57.344 141.899,44.781 c -1.655,-4.192 -3.219,-7.368 -4.715,-9.565 -1.493,-2.247 -3.221,-4.054 -5.164,-5.398 -1.979,-1.334 -4.373,-2.412 -7.163,-3.176 -2.862,-0.775 -6.063,-1.207 -9.646,-1.207 -3.615,0 -7.179,0.432 -10.688,1.207 l -1.565,14.873 c 2.931,-0.621 5.595,-0.926 7.955,-0.926 4.354,0 7.593,1.282 9.678,3.848 2.105,2.63 3.71,5.958 4.823,9.947 z M 237.09,54.574 h -18.824 v 36.46 c 0,7.676 -0.395,12.63 -1.222,14.919 -0.829,2.26 -2.105,4.025 -3.96,5.283 -1.818,1.244 -4.051,1.88 -6.606,1.88 -3.309,0 -6.243,-0.919 -8.888,-2.718 -2.646,-1.785 -4.427,-4.143 -5.398,-7.057 -0.953,-2.99 -1.457,-8.423 -1.457,-16.442 V 54.574 h -18.788 v 71.625 h 17.403 v -10.493 c 6.261,7.934 14.124,11.852 23.606,11.852 4.214,0 8.028,-0.77 11.503,-2.211 3.469,-1.548 6.115,-3.415 7.861,-5.778 1.765,-2.339 3.005,-4.981 3.709,-7.915 0.699,-2.914 1.061,-7.202 1.061,-12.702 z m 19.38,35.615 c 0,-7.151 1.674,-12.613 5.076,-16.323 3.383,-3.822 7.54,-5.726 12.507,-5.726 4.966,0 9.123,1.904 12.506,5.726 3.33,3.71 5.004,9.236 5.004,16.411 0,7.076 -1.674,12.488 -5.004,16.234 -3.383,3.742 -7.54,5.686 -12.506,5.686 -4.967,0 -9.124,-1.944 -12.507,-5.686 -3.402,-3.746 -5.076,-9.216 -5.076,-16.322 m -19.272,0.954 c 0,6.35 1.565,12.382 4.662,18.302 3.092,5.864 7.485,10.366 13.173,13.489 5.683,3.113 12.037,4.625 19.035,4.625 10.852,0 19.709,-3.505 26.614,-10.541 6.929,-7.039 10.404,-15.931 10.404,-26.652 0,-10.833 -3.506,-19.775 -10.492,-26.915 -6.98,-7.099 -15.798,-10.706 -26.399,-10.706 -6.55,0 -12.794,1.511 -18.769,4.471 -5.954,2.973 -10.474,7.317 -13.566,13.071 -3.097,5.69 -4.662,12.65 -4.662,20.856"
       id="path3" />
    <path
       d="M 334.19,162.92 V 70.451 c 0,-4.41 0.326,-7.331 0.941,-8.727 0.648,-1.463 1.619,-2.541 2.927,-3.266 1.333,-0.737 3.799,-1.116 7.362,-1.116 v -2.768 h -34.169 v 2.768 c 3.202,0 5.379,0.329 6.605,1.028 1.131,0.686 2.045,1.729 2.712,3.278 0.667,1.511 0.973,4.445 0.973,8.803 v 63.101 c 0,7.938 -0.159,12.798 -0.502,14.634 -0.325,1.816 -0.902,3.037 -1.659,3.684 -0.774,0.684 -1.739,1.067 -2.916,1.067 -1.276,0 -2.913,-0.471 -4.876,-1.245 l -1.295,2.706 20.519,8.522 z m 42.82,-41.62 c -2.7,0 -5.398,-0.7 -8.117,-2.337 -2.719,-1.615 -4.929,-4.371 -6.606,-8.333 -1.67,-4.045 -2.515,-9.158 -2.515,-15.432 0,-10.137 2.051,-18.785 6.059,-26.193 4.052,-7.277 9.362,-10.987 15.948,-10.987 4.966,0 9.011,2.073 12.18,6.084 3.221,4.041 4.828,10.989 4.828,20.882 0,12.372 -2.669,22.033 -7.997,29.14 -3.613,4.825 -8.206,7.176 -13.78,7.176 m 2.337,5.131 c 10.6,0 19.077,-4.015 25.498,-12.043 C 410.281,107.555 413,99.693 413,90.822 413,84.554 411.527,78.24 408.516,71.876 405.511,65.489 401.391,60.66 396.1,57.423 c -5.271,-3.252 -11.101,-4.879 -17.561,-4.879 -10.561,0 -18.932,4.193 -25.124,12.538 -5.232,7.036 -7.862,14.961 -7.862,23.763 0,6.404 1.587,12.716 4.75,19.003 3.208,6.365 7.38,10.988 12.581,14.088 5.182,2.972 10.67,4.495 16.463,4.495 m 62.213,-3.851 c -3.747,0 -6.84,-1.562 -9.381,-4.535 -2.515,-2.973 -3.759,-7.431 -3.759,-13.605 0,-7.95 1.708,-14.11 5.131,-18.518 2.642,-3.315 5.938,-4.977 9.951,-4.977 3.831,0 7,1.47 9.444,4.342 2.466,2.871 3.691,7.349 3.691,13.464 0,8.049 -1.709,14.291 -5.183,18.811 -2.61,3.29 -5.886,5.018 -9.894,5.018 M 427.664,54.576 c -2.319,-2.516 -4.047,-4.931 -5.253,-7.204 -1.206,-2.121 -1.765,-4.204 -1.765,-6.018 0,-2.492 1.442,-4.576 4.375,-6.391 5.074,-3.1 12.397,-4.711 21.957,-4.711 9.1,0 15.794,1.611 20.151,4.812 4.355,3.176 6.496,6.566 6.496,10.187 0,2.578 -1.296,4.444 -3.887,5.563 -2.647,1.12 -7.862,1.766 -15.712,1.932 -11.425,0.34 -20.228,1.002 -26.362,1.83 m 0.629,25.567 c -4.242,2.159 -7.469,5.004 -9.768,8.726 -2.249,3.767 -3.386,7.85 -3.386,12.332 0,6.913 2.56,12.87 7.742,17.76 5.197,4.967 11.858,7.468 19.955,7.468 6.618,0 12.36,-1.562 17.217,-4.822 h 14.743 c 2.196,0 3.452,-0.068 3.834,-0.196 a 2.04,2.04 0 0 0 0.737,-0.647 c 0.285,-0.471 0.463,-1.282 0.463,-2.433 0,-1.327 -0.14,-2.305 -0.394,-2.767 a 1.303,1.303 0 0 0 -0.806,-0.592 c -0.382,-0.153 -1.638,-0.217 -3.854,-0.217 h -9.088 c 2.882,-3.67 4.305,-8.359 4.305,-14.059 0,-6.478 -2.52,-12.068 -7.456,-16.664 -4.967,-4.625 -11.623,-6.962 -19.936,-6.962 -3.454,0 -6.968,0.507 -10.581,1.638 -2.122,-1.996 -3.564,-3.659 -4.281,-5.105 -0.774,-1.487 -1.156,-2.693 -1.156,-3.671 0,-0.93 0.414,-1.727 1.277,-2.579 0.813,-0.789 2.471,-1.386 4.896,-1.714 1.385,-0.267 4.967,-0.458 10.619,-0.623 10.416,-0.33 17.187,-0.725 20.242,-1.246 4.717,-0.648 8.499,-2.426 11.306,-5.221 2.804,-2.819 4.208,-6.262 4.208,-10.377 0,-5.652 -2.698,-11.038 -8.058,-16.016 -7.849,-7.329 -18.145,-11.001 -30.829,-11.001 -9.754,0 -17.998,2.145 -24.724,6.555 -3.797,2.542 -5.671,5.145 -5.671,7.902 0,1.166 0.273,2.412 0.794,3.63 0.844,1.907 2.591,4.41 5.214,7.761 0.344,0.483 2.902,3.202 7.596,8.18 -2.611,1.641 -4.477,3.022 -5.539,4.308 -1.085,1.243 -1.638,2.678 -1.638,4.24 0,1.806 0.698,3.876 2.122,6.251 1.441,2.426 4.75,5.844 9.895,10.161 M 481.99,124.4 h 32.626 v -2.789 h -1.581 c -2.307,0 -4.015,-0.539 -5.164,-1.481 -1.137,-1.021 -1.689,-2.247 -1.689,-3.681 0,-2.022 0.806,-4.739 2.515,-8.231 l 17.009,-35.285 15.564,38.551 c 0.865,2.121 1.296,4.151 1.296,6.26 0,0.902 -0.216,1.564 -0.537,2.012 -0.415,0.54 -1.049,1.024 -1.913,1.316 -0.845,0.343 -2.389,0.539 -4.546,0.539 v 2.789 h 22.564 v -2.789 c -1.874,-0.196 -3.329,-0.628 -4.338,-1.226 -1.031,-0.629 -2.141,-1.739 -3.346,-3.378 -0.471,-0.735 -1.373,-2.649 -2.612,-5.854 L 519.57,41.608 c -2.756,-6.782 -6.357,-11.85 -10.835,-15.305 -4.465,-3.481 -8.765,-5.145 -12.904,-5.145 -3.006,0 -5.47,0.801 -7.431,2.58 -1.926,1.701 -2.895,3.671 -2.895,5.931 0,2.109 0.695,3.759 2.099,5.08 1.404,1.346 3.366,1.943 5.8,1.943 1.69,0 4.014,-0.545 6.91,-1.625 2.031,-0.698 3.327,-1.143 3.849,-1.143 1.531,0 3.169,0.825 5.005,2.387 1.797,1.551 3.613,4.587 5.436,9.057 l 4.928,12.146 -25.104,52.469 c -0.769,1.59 -1.995,3.531 -3.652,5.887 -1.276,1.76 -2.32,2.968 -3.133,3.616 -1.169,0.761 -3.062,1.497 -5.653,2.125 z"
       id="path4" />
  </g>
</svg>
