<?xml version="1.0" encoding="UTF-8" standalone="no"?>
<svg
   viewBox="0 0 23.999999 24"
   fill="currentColor"
   version="1.1"
   id="svg1"
   sodipodi:docname="synology_dsm.svg"
   width="24"
   height="24"
   inkscape:version="1.3.2 (091e20e, 2023-11-25)"
   xmlns:inkscape="http://www.inkscape.org/namespaces/inkscape"
   xmlns:sodipodi="http://sodipodi.sourceforge.net/DTD/sodipodi-0.dtd"
   xmlns="http://www.w3.org/2000/svg"
   xmlns:svg="http://www.w3.org/2000/svg"
   xmlns:rdf="http://www.w3.org/1999/02/22-rdf-syntax-ns#"
   xmlns:cc="http://creativecommons.org/ns#"
   xmlns:dc="http://purl.org/dc/elements/1.1/">
  <defs
     id="defs1" />
  <sodipodi:namedview
     id="namedview1"
     pagecolor="#ffffff"
     bordercolor="#000000"
     borderopacity="0.25"
     inkscape:showpageshadow="2"
     inkscape:pageopacity="0.0"
     inkscape:pagecheckerboard="0"
     inkscape:deskcolor="#d1d1d1"
     inkscape:zoom="27.872"
     inkscape:cx="10.386768"
     inkscape:cy="11.965413"
     inkscape:window-width="1392"
     inkscape:window-height="1014"
     inkscape:window-x="2096"
     inkscape:window-y="25"
     inkscape:window-maximized="0"
     inkscape:current-layer="svg1" />
  <title
     id="title1">Synology</title>
  <path
     d="M 3.9377619,23.464409 C 2.2791264,23.248761 1.0190417,22.120289 0.58927499,20.465852 0.50600128,20.145323 0.5,19.578143 0.5,11.996649 V 3.870928 L 0.61328015,3.4510857 C 1.0015961,2.0114689 2.0287005,0.99592629 3.4845947,0.61196406 L 3.9091976,0.5 h 8.0906684 c 7.428945,0 8.11793,0.006946 8.423949,0.0850081 1.30135,0.33179819 2.274257,1.1300826 2.754267,2.2597974 0.344492,0.8107964 0.321603,0.1592521 0.321603,9.1514755 v 8.12572 l -0.113233,0.419843 c -0.385944,1.430554 -1.396766,2.441451 -2.838005,2.838155 l -0.407065,0.11201 -7.937658,0.0074 c -4.3657754,0.004 -8.0852722,-0.01182 -8.26559,-0.03524 z m 8.3235561,-7.847696 c 1.014776,-0.25415 1.682129,-0.883799 1.852491,-1.747725 C 14.292358,12.963155 13.841657,12.067259 13.017294,11.68969 12.849351,11.612778 12.219681,11.420958 11.61797,11.263408 10.161005,10.88193 9.8892265,10.738272 9.807302,10.306286 9.7255638,9.8756334 9.9920393,9.4712472 10.446229,9.3366511 c 0.257219,-0.076222 0.96886,-0.082294 1.214169,-0.01035 0.366451,0.1074101 0.622599,0.3036922 0.750301,0.5748164 0.06713,0.1426455 0.122351,0.3086605 0.122584,0.3689665 0.0011,0.222962 0.119188,0.26772 0.706802,0.26772 0.729926,0 0.760118,-0.02167 0.67396,-0.48392 -0.220374,-1.1828451 -1.297396,-1.9310816 -2.779528,-1.9310816 -1.1983967,0 -2.14995,0.4817583 -2.5505477,1.2913128 -0.1198862,0.2424661 -0.1466361,0.3691042 -0.1624069,0.7698568 -0.023308,0.593814 0.087182,0.929614 0.4299528,1.306584 0.3268144,0.359399 0.7723054,0.557935 1.9266468,0.858453 1.505207,0.39192 1.661891,0.454986 1.871704,0.753388 0.111094,0.157964 0.118909,0.700949 0.01302,0.903533 -0.204741,0.391506 -0.680053,0.583372 -1.426586,0.575966 -0.58673,-0.0058 -0.980722,-0.125074 -1.2843218,-0.388608 -0.2040903,-0.177192 -0.4190202,-0.588616 -0.4197646,-0.803529 -0.00112,-0.315192 -0.045638,-0.33626 -0.7084312,-0.33626 -0.745602,0 -0.7480212,0.0018 -0.6678644,0.512947 0.2234433,1.424344 1.5124179,2.267893 3.309362,2.165865 0.237865,-0.01357 0.596082,-0.06555 0.795985,-0.115644 z M 5.1203415,15.487315 C 5.8588722,15.322451 6.5519514,14.853894 6.9384995,14.258286 7.6666094,13.136345 7.739881,11.188428 7.1026743,9.8932974 6.8418276,9.3631471 6.3384171,8.8596308 5.817375,8.6077807 5.2059412,8.3122765 4.8767077,8.2737285 2.9652273,8.2737285 c -1.601879,0 -1.6751506,0.00414 -1.72558,0.097336 -0.072899,0.134642 -0.072899,6.9660145 0,7.1008865 0.050476,0.09329 0.1243523,0.09729 1.7835925,0.09729 1.4137921,0 1.7980142,-0.015 2.0971482,-0.08174 z M 2.6117095,11.921439 V 9.4309512 h 0.8047776 c 0.9312698,0 1.2935337,0.05405 1.6860831,0.2514361 0.754069,0.3791777 1.0309657,0.9805827 1.0309657,2.2390977 0,0.994428 -0.1572896,1.528351 -0.5706343,1.937061 -0.4410249,0.436034 -0.8804217,0.553426 -2.0714682,0.553426 H 2.611663 Z m 13.8092925,3.568084 c 0.01693,-0.04375 0.03238,-1.215413 0.03429,-2.603694 0.0022,-1.638613 0.02047,-2.488831 0.05192,-2.423511 0.02666,0.05534 0.455726,1.221346 0.953461,2.591135 l 0.905031,2.490442 0.541837,0.01426 c 0.516391,0.01362 0.545328,0.0089 0.615994,-0.100602 0.0408,-0.0632 0.467821,-1.201613 0.94904,-2.529864 0.481174,-1.328251 0.894611,-2.448995 0.918803,-2.490487 0.02512,-0.04315 0.04494,1.011816 0.04629,2.465325 0.0012,1.397435 0.02093,2.569884 0.04373,2.605396 0.0308,0.04798 0.196973,0.0609 0.648,0.05028 l 0.606549,-0.01426 V 8.2989825 l -0.865023,-0.012466 c -0.475777,-0.00685 -0.895356,0.0069 -0.932434,0.030498 -0.03708,0.023598 -0.483592,1.2405288 -0.992259,2.7042035 -0.508574,1.463675 -0.944854,2.661286 -0.969464,2.661286 -0.02456,0 -0.467775,-1.188641 -0.984863,-2.64146 -0.517087,-1.4527727 -0.963927,-2.6702094 -0.992911,-2.7054455 -0.03982,-0.048392 -0.271174,-0.06072 -0.948669,-0.050278 l -0.896006,0.013662 -0.01317,3.5722245 c -0.0073,1.964753 -0.0022,3.600514 0.01112,3.635106 0.01754,0.04549 0.192506,0.06293 0.631066,0.06293 0.506342,0 0.611852,-0.0132 0.637672,-0.07958 z"
     id="path1"
     style="stroke-width:0.0462601" />
  <metadata
     id="metadata1">
    <rdf:RDF>
      <cc:Work
         rdf:about="">
        <dc:title>Synology</dc:title>
      </cc:Work>
    </rdf:RDF>
  </metadata>
</svg>
